# xmcd
#
# Track frame offsets: 
#        150
#        17018
#        42630
#        52520
#        77186
#        105657
#        120778
#
# Disc length: 1924 seconds
#
# Revision: 0
# Processed by: cddbd v1.5.2PL0 Copyright (c) Steve Scherf et al.
# Submitted via: ExactAudioCopy v0.95a5
#
DISCID=47078207
DTITLE=Willie Pierce Blues Band - Direct Access To The Blues
DYEAR=2000
DGENRE=Blues
TTITLE0=Pawnshop Bound
TTITLE1=Direct Access To The Blues
TTITLE2=Sweet Little Woman
TTITLE3=Let The Big Dog Eat
TTITLE4=Let's Straighten It Out
TTITLE5=Cross Cut Saw
TTITLE6=I Don't Know Why
EXTD=
EXTT0=
EXTT1=
EXTT2=
EXTT3=
EXTT4=
EXTT5=
EXTT6=
PLAYORDER=
